# xmcd CD database file
#
# Track frame offsets:
#	150
#	26726
#	56494
#	86479
#	113546
#	140123
#	172461
#	215262
#	257359
#
# Disc length: 3891 seconds
#
# Revision: 0
# Processed by: cddbd v1.5.1PL2 Copyright (c) Steve Scherf et al.
# Submitted via: CDex 1.51
#
DISCID=7c0f3109
DTITLE=Victor Goines - New Adventures
DYEAR=2006
DGENRE=Jazz
TTITLE0=Stop 'n' Go
TTITLE1=Pres' New Clarinet
TTITLE2=The Nearness Of You
TTITLE3=Eternal Devotion
TTITLE4=Cochise
TTITLE5=Waltz Beneath The Weeping Willow
TTITLE6=Petite Fleur
TTITLE7=New Adventures
TTITLE8=As We Mature (We Learn To Take Our Time)
EXTD=YEAR: 2006
EXTT0=
EXTT1=
EXTT2=
EXTT3=
EXTT4=
EXTT5=
EXTT6=
EXTT7=
EXTT8=
PLAYORDER=
